<svg xmlns="http://www.w3.org/2000/svg" version="1.1" xmlns:xlink="http://www.w3.org/1999/xlink" xmlns:svgjs="http://svgjs.com/svgjs" width="1000" height="1000"><rect width="1000" height="1000" rx="200" ry="200" fill="#fcfcfc"></rect><g transform="matrix(1.4314798320396998,0,0,1.4314798320396998,73.9402866344401,49.99855787136215)"><svg xmlns="http://www.w3.org/2000/svg" version="1.1" xmlns:xlink="http://www.w3.org/1999/xlink" xmlns:svgjs="http://svgjs.com/svgjs" width="595.28" height="628.72"><svg id="Layer_1" data-name="Layer 1" xmlns="http://www.w3.org/2000/svg" viewBox="0 0 595.28 628.72">
  <g style="isolation: isolate;">
    <g style="isolation: isolate;">
      <path d="M345.12,96.14c0-.11-.04-.21-.12-.28l-46.1-42.88c-.15-.14-.38-.14-.53,0l-48.62,47.01c-.08.07-.12.17-.12.28v71.91c0,.1.04.2.11.27l47.36,47.36c.15.15.39.15.55,0,0,0,0,0,0,0l47.36-47.39c.07-.07.11-.17.11-.27v-76Z" style="fill: #046333; isolation: isolate; stroke-width: 0px;"></path>
      <path d="M485.63,193.84c.09-.09.13-.2.12-.33-.64-10.62-.82-21.33-1.16-32.09-.03-.98-.18-1.94-.22-2.93-.3-9.06-.6-18.38-.88-27.94,0-.14-.07-.21-.21-.21l-67.77-1.13c-.16,0-.28.04-.37.13-.27.25-.52.5-.77.75-16.57,16.55-33.1,33.07-49.6,49.55-.16.16-.3.34-.41.51-.12.2-.19.43-.19.67v66.77c0,.09.07.16.15.16h66.84c.37,0,.73-.14.99-.41l53.48-53.49" style="fill: #046333; isolation: isolate; stroke-width: 0px;"></path>
      <path d="M115.84,200.56c15.53,15.55,31.1,31.13,46.71,46.74.46.45.86.45,1.47.45,21.4,0,43.53,0,66.38,0,.1,0,.18-.08.18-.18,0-22.11,0-44.29,0-66.53,0-.68-.33-1.12-.81-1.6-16.41-16.4-32.77-32.76-49.07-49.09-.27-.27-.64-.42-1.02-.42l-67.22.1s-.07.03-.07.08c.07,5.6.22,11.21.44,16.83.49,12.31.73,24.63,1.02,36.7.12,4.81.51,9.84.46,14.64-.01,1.15.86,1.59,1.54,2.28Z" style="fill: #046333; isolation: isolate; stroke-width: 0px;"></path>
      <path d="M249.32,266.81h-66.76c-.35,0-.4.12-.15.37l47.34,47.32c.06.06.06.15,0,.21h0s-47.42,47.43-47.42,47.43c-.04.04-.04.1,0,.14.02.02.04.03.07.03h67.08c.08,0,.15.07.15.15v67.09c0,.23.08.26.24.1l47.42-47.43s.11-.04.15,0l47.52,47.55c.11.11.16.08.16-.1v-67.1c0-.17.09-.26.26-.26h66.91c.16,0,.19-.06.07-.18l-47.3-47.33c-.11-.11-.11-.28,0-.39,0,0,0,0,0,0l47.47-47.44s.02-.04,0-.06c0,0,0,0-.01,0-.14-.06-.29-.1-.45-.1h-66.8c-.08,0-.15-.07-.15-.15v-66.71c0-.42-.15-.48-.44-.18l-46.95,46.97c-.24.24-.48.24-.72,0l-47.1-47.13c-.19-.19-.28-.15-.28.12v66.79c0,.2-.1.3-.3.3Z" style="fill: #046333; isolation: isolate; stroke-width: 0px;"></path>
      <path d="M84.07,266.81s-.07.01-.1.04l-47.84,48c-.05.05-.05.14,0,.19,0,0,0,0,0,0l50,47.22s.06.04.09.04h68.89s.07-.01.1-.04l47.54-47.58c.05-.05.05-.13,0-.18l-47.68-47.65s-.06-.04-.1-.04h-70.92Z" style="fill: #046333; isolation: isolate; stroke-width: 0px;"></path>
      <path d="M559.16,315.83c-15.45-15.93-30.89-31.9-46.32-47.91-.19-.2-.55-.53-1.07-.99-.09-.08-.2-.12-.32-.12h-71.57c-.14,0-.26.05-.36.15l-47.56,47.53c-.07.06-.07.17,0,.24h0s47.19,47.21,47.19,47.21c.23.23.55.36.87.36h75.71c.17,0,.32-.07.44-.19l42.98-46.19s.02-.06,0-.09Z" style="fill: #046333; isolation: isolate; stroke-width: 0px;"></path>
      <path d="M182.06,497.47l48.38-48.42c.08-.09.13-.2.13-.32v-67.14s-.04-.08-.08-.08h-67.24c-.2,0-.37.07-.51.21-16.41,16.43-32.96,32.98-49.64,49.67-.3.3-.45.67-.45,1.09.06,22.26.09,44.57.09,66.93,0,.11.09.2.2.2h0c10.31-.18,20.63-.47,30.97-.85,11.67-.43,23.36-.61,34.87-.97.93-.03,1.91-.08,2.93-.16.14-.01.26-.07.35-.16Z" style="fill: #046333; isolation: isolate; stroke-width: 0px;"></path>
      <path d="M431.84,381.68c-.23-.11-.47-.17-.74-.17-22.31,0-44.56,0-66.76,0-.12,0-.18.06-.18.18v66.85c0,.29.1.53.3.73l53.54,53.58c.1.1.23.15.38.15l62.9-2.29c.18,0,.26-.1.27-.27l1.18-67.61c0-.2-.08-.4-.22-.54l-50.36-50.38c-.1-.1-.21-.17-.33-.24Z" style="fill: #046333; isolation: isolate; stroke-width: 0px;"></path>
      <path d="M297.61,409.42c-.18-.18-.36-.19-.52-.03l-47.3,47.3c-.11.11-.18.26-.18.42v70.75c0,.14.05.26.15.36,15.66,15.63,31.32,31.23,47,46.83.26.26.53.5.81.74.11.09.21.08.31-.02,15.33-16.23,30.92-32.74,46.77-49.52.36-.38.49-1.3.49-1.81-.06-22.39-.06-44.77.02-67.14,0-.2-.07-.37-.21-.52l-47.33-47.36Z" style="fill: #046333; isolation: isolate; stroke-width: 0px;"></path>
    </g>
  </g>
</svg></svg></g></svg>